<?xml version="1.0"?>
<!-- Generated by SVGo -->
<svg width="457.677mm" height="143.352mm"
     viewBox="0.000 0.000 457.677 143.352"
     xmlns="http://www.w3.org/2000/svg" 
     xmlns:xlink="http://www.w3.org/1999/xlink">
<polygon points="452.677,138.352 5.001,138.352 5.001,5.001 452.677,5.001" style="fill:none;stroke-width:0.050000mm;stroke:black"/>
<polygon points="359.951,121.826 359.951,122.826 359.151,122.826 359.151,125.926 359.951,125.926 359.951,131.726 359.151,131.726 359.151,134.826 359.951,134.826 359.951,135.826 373.951,135.826 373.951,134.826 374.751,134.826 374.751,131.726 373.951,131.726 373.951,125.926 374.751,125.926 374.751,122.826 373.951,122.826 373.951,121.826" style="fill:none;stroke-width:0.050000mm;stroke:black"/>
<polygon points="340.901,121.826 340.901,122.826 340.100,122.826 340.100,125.926 340.901,125.926 340.901,131.726 340.100,131.726 340.100,134.826 340.901,134.826 340.901,135.826 354.901,135.826 354.901,134.826 355.701,134.826 355.701,131.726 354.901,131.726 354.901,125.926 355.701,125.926 355.701,122.826 354.901,122.826 354.901,121.826" style="fill:none;stroke-width:0.050000mm;stroke:black"/>
<polygon points="321.850,121.826 321.850,122.826 321.050,122.826 321.050,125.926 321.850,125.926 321.850,131.726 321.050,131.726 321.050,134.826 321.850,134.826 321.850,135.826 335.850,135.826 335.850,134.826 336.651,134.826 336.651,131.726 335.850,131.726 335.850,125.926 336.651,125.926 336.651,122.826 335.850,122.826 335.850,121.826" style="fill:none;stroke-width:0.050000mm;stroke:black"/>
<polygon points="157.544,112.301 157.544,113.301 156.744,113.301 156.744,116.401 157.544,116.401 157.544,117.001 117.919,117.001 117.919,113.771 116.194,113.771 116.194,112.851 112.894,112.851 112.894,113.771 111.169,113.771 111.169,117.001 110.344,117.001 110.344,119.801 111.169,119.801 111.169,126.071 112.894,126.071 112.894,127.051 116.194,127.051 116.194,126.071 117.919,126.071 117.919,121.601 157.544,121.601 157.544,122.201 156.744,122.201 156.744,125.301 157.544,125.301 157.544,126.301 171.544,126.301 171.544,125.301 172.344,125.301 172.344,122.201 171.544,122.201 171.544,121.601 211.169,121.601 211.169,126.071 212.894,126.071 212.894,127.051 216.194,127.051 216.194,126.071 217.919,126.071 217.919,119.801 218.744,119.801 218.744,117.001 217.919,117.001 217.919,113.771 216.194,113.771 216.194,112.851 212.894,112.851 212.894,113.771 211.169,113.771 211.169,117.001 171.544,117.001 171.544,116.401 172.344,116.401 172.344,113.301 171.544,113.301 171.544,112.301" style="fill:none;stroke-width:0.050000mm;stroke:black"/>
<polygon points="417.101,112.301 417.101,113.301 416.301,113.301 416.301,116.401 417.101,116.401 417.101,122.201 416.301,122.201 416.301,125.301 417.101,125.301 417.101,126.301 431.101,126.301 431.101,125.301 431.901,125.301 431.901,122.201 431.101,122.201 431.101,116.401 431.901,116.401 431.901,113.301 431.101,113.301 431.101,112.301" style="fill:none;stroke-width:0.050000mm;stroke:black"/>
<polygon points="398.051,112.301 398.051,113.301 397.251,113.301 397.251,116.401 398.051,116.401 398.051,122.201 397.251,122.201 397.251,125.301 398.051,125.301 398.051,126.301 412.051,126.301 412.051,125.301 412.851,125.301 412.851,122.201 412.051,122.201 412.051,116.401 412.851,116.401 412.851,113.301 412.051,113.301 412.051,112.301" style="fill:none;stroke-width:0.050000mm;stroke:black"/>
<polygon points="278.988,112.301 278.988,113.301 278.188,113.301 278.188,116.401 278.988,116.401 278.988,122.201 278.188,122.201 278.188,125.301 278.988,125.301 278.988,126.301 292.988,126.301 292.988,125.301 293.788,125.301 293.788,122.201 292.988,122.201 292.988,116.401 293.788,116.401 293.788,113.301 292.988,113.301 292.988,112.301" style="fill:none;stroke-width:0.050000mm;stroke:black"/>
<polygon points="252.794,112.301 252.794,113.301 251.994,113.301 251.994,116.401 252.794,116.401 252.794,122.201 251.994,122.201 251.994,125.301 252.794,125.301 252.794,126.301 266.794,126.301 266.794,125.301 267.594,125.301 267.594,122.201 266.794,122.201 266.794,116.401 267.594,116.401 267.594,113.301 266.794,113.301 266.794,112.301" style="fill:none;stroke-width:0.050000mm;stroke:black"/>
<polygon points="228.982,112.301 228.982,113.301 228.182,113.301 228.182,116.401 228.982,116.401 228.982,122.201 228.182,122.201 228.182,125.301 228.982,125.301 228.982,126.301 242.982,126.301 242.982,125.301 243.782,125.301 243.782,122.201 242.982,122.201 242.982,116.401 243.782,116.401 243.782,113.301 242.982,113.301 242.982,112.301" style="fill:none;stroke-width:0.050000mm;stroke:black"/>
<polygon points="88.488,112.301 88.488,113.301 87.688,113.301 87.688,116.401 88.488,116.401 88.488,122.201 87.688,122.201 87.688,125.301 88.488,125.301 88.488,126.301 102.488,126.301 102.488,125.301 103.288,125.301 103.288,122.201 102.488,122.201 102.488,116.401 103.288,116.401 103.288,113.301 102.488,113.301 102.488,112.301" style="fill:none;stroke-width:0.050000mm;stroke:black"/>
<polygon points="69.438,112.301 69.438,113.301 68.638,113.301 68.638,116.401 69.438,116.401 69.438,122.201 68.638,122.201 68.638,125.301 69.438,125.301 69.438,126.301 83.438,126.301 83.438,125.301 84.238,125.301 84.238,122.201 83.438,122.201 83.438,116.401 84.238,116.401 84.238,113.301 83.438,113.301 83.438,112.301" style="fill:none;stroke-width:0.050000mm;stroke:black"/>
<polygon points="43.244,112.301 43.244,113.301 42.444,113.301 42.444,116.401 43.244,116.401 43.244,122.201 42.444,122.201 42.444,125.301 43.244,125.301 43.244,126.301 57.244,126.301 57.244,125.301 58.044,125.301 58.044,122.201 57.244,122.201 57.244,116.401 58.044,116.401 58.044,113.301 57.244,113.301 57.244,112.301" style="fill:none;stroke-width:0.050000mm;stroke:black"/>
<polygon points="7.526,112.301 7.526,113.301 6.726,113.301 6.726,116.401 7.526,116.401 7.526,122.201 6.726,122.201 6.726,125.301 7.526,125.301 7.526,126.301 21.526,126.301 21.526,125.301 22.326,125.301 22.326,122.201 21.526,122.201 21.526,116.401 22.326,116.401 22.326,113.301 21.526,113.301 21.526,112.301" style="fill:none;stroke-width:0.050000mm;stroke:black"/>
<polygon points="442.651,93.676 442.651,94.501 436.381,94.501 436.381,96.226 435.401,96.226 435.401,99.526 436.381,99.526 436.381,101.251 440.851,101.251 440.851,102.776 440.251,102.776 440.251,101.976 437.151,101.976 437.151,102.776 436.151,102.776 436.151,116.776 437.151,116.776 437.151,117.576 440.251,117.576 440.251,116.776 440.851,116.776 440.851,118.301 436.381,118.301 436.381,120.026 435.401,120.026 435.401,123.326 436.381,123.326 436.381,125.051 442.651,125.051 442.651,125.876 445.451,125.876 445.451,125.051 448.681,125.051 448.681,123.326 449.601,123.326 449.601,120.026 448.681,120.026 448.681,118.301 445.451,118.301 445.451,116.776 446.051,116.776 446.051,117.576 449.151,117.576 449.151,116.776 450.151,116.776 450.151,102.776 449.151,102.776 449.151,101.976 446.051,101.976 446.051,102.776 445.451,102.776 445.451,101.251 448.681,101.251 448.681,99.526 449.601,99.526 449.601,96.226 448.681,96.226 448.681,94.501 445.451,94.501 445.451,93.676" style="fill:none;stroke-width:0.050000mm;stroke:black"/>
<polygon points="340.901,102.776 340.901,103.776 340.100,103.776 340.100,106.876 340.901,106.876 340.901,112.676 340.100,112.676 340.100,115.776 340.901,115.776 340.901,116.776 354.901,116.776 354.901,115.776 355.701,115.776 355.701,112.676 354.901,112.676 354.901,106.876 355.701,106.876 355.701,103.776 354.901,103.776 354.901,102.776" style="fill:none;stroke-width:0.050000mm;stroke:black"/>
<polygon points="286.132,93.251 286.132,94.251 285.332,94.251 285.332,97.351 286.132,97.351 286.132,97.951 284.607,97.951 284.607,94.721 282.882,94.721 282.882,93.801 279.582,93.801 279.582,94.721 277.857,94.721 277.857,97.951 277.032,97.951 277.032,100.751 277.857,100.751 277.857,107.021 279.582,107.021 279.582,108.001 282.882,108.001 282.882,107.021 284.607,107.021 284.607,102.551 286.132,102.551 286.132,103.151 285.332,103.151 285.332,106.251 286.132,106.251 286.132,107.251 300.132,107.251 300.132,106.251 300.932,106.251 300.932,103.151 300.132,103.151 300.132,102.551 301.657,102.551 301.657,107.021 303.382,107.021 303.382,108.001 306.682,108.001 306.682,107.021 308.407,107.021 308.407,100.751 309.232,100.751 309.232,97.951 308.407,97.951 308.407,94.721 306.682,94.721 306.682,93.801 303.382,93.801 303.382,94.721 301.657,94.721 301.657,97.951 300.132,97.951 300.132,97.351 300.932,97.351 300.932,94.251 300.132,94.251 300.132,93.251" style="fill:none;stroke-width:0.050000mm;stroke:black"/>
<polygon points="48.007,93.251 48.007,94.251 47.207,94.251 47.207,97.351 48.007,97.351 48.007,97.951 46.482,97.951 46.482,94.721 44.757,94.721 44.757,93.801 41.457,93.801 41.457,94.721 39.732,94.721 39.732,97.951 38.907,97.951 38.907,100.751 39.732,100.751 39.732,107.021 41.457,107.021 41.457,108.001 44.757,108.001 44.757,107.021 46.482,107.021 46.482,102.551 48.007,102.551 48.007,103.151 47.207,103.151 47.207,106.251 48.007,106.251 48.007,107.251 62.007,107.251 62.007,106.251 62.807,106.251 62.807,103.151 62.007,103.151 62.007,102.551 63.532,102.551 63.532,107.021 65.257,107.021 65.257,108.001 68.557,108.001 68.557,107.021 70.282,107.021 70.282,100.751 71.107,100.751 71.107,97.951 70.282,97.951 70.282,94.721 68.557,94.721 68.557,93.801 65.257,93.801 65.257,94.721 63.532,94.721 63.532,97.951 62.007,97.951 62.007,97.351 62.807,97.351 62.807,94.251 62.007,94.251 62.007,93.251" style="fill:none;stroke-width:0.050000mm;stroke:black"/>
<polygon points="417.101,93.251 417.101,94.251 416.301,94.251 416.301,97.351 417.101,97.351 417.101,103.151 416.301,103.151 416.301,106.251 417.101,106.251 417.101,107.251 431.101,107.251 431.101,106.251 431.901,106.251 431.901,103.151 431.101,103.151 431.101,97.351 431.901,97.351 431.901,94.251 431.101,94.251 431.101,93.251" style="fill:none;stroke-width:0.050000mm;stroke:black"/>
<polygon points="398.051,93.251 398.051,94.251 397.251,94.251 397.251,97.351 398.051,97.351 398.051,103.151 397.251,103.151 397.251,106.251 398.051,106.251 398.051,107.251 412.051,107.251 412.051,106.251 412.851,106.251 412.851,103.151 412.051,103.151 412.051,97.351 412.851,97.351 412.851,94.251 412.051,94.251 412.051,93.251" style="fill:none;stroke-width:0.050000mm;stroke:black"/>
<polygon points="379.001,93.251 379.001,94.251 378.201,94.251 378.201,97.351 379.001,97.351 379.001,103.151 378.201,103.151 378.201,106.251 379.001,106.251 379.001,107.251 393.001,107.251 393.001,106.251 393.801,106.251 393.801,103.151 393.001,103.151 393.001,97.351 393.801,97.351 393.801,94.251 393.001,94.251 393.001,93.251" style="fill:none;stroke-width:0.050000mm;stroke:black"/>
<polygon points="250.413,93.251 250.413,94.251 249.613,94.251 249.613,97.351 250.413,97.351 250.413,103.151 249.613,103.151 249.613,106.251 250.413,106.251 250.413,107.251 264.413,107.251 264.413,106.251 265.213,106.251 265.213,103.151 264.413,103.151 264.413,97.351 265.213,97.351 265.213,94.251 264.413,94.251 264.413,93.251" style="fill:none;stroke-width:0.050000mm;stroke:black"/>
<polygon points="231.363,93.251 231.363,94.251 230.563,94.251 230.563,97.351 231.363,97.351 231.363,103.151 230.563,103.151 230.563,106.251 231.363,106.251 231.363,107.251 245.363,107.251 245.363,106.251 246.163,106.251 246.163,103.151 245.363,103.151 245.363,97.351 246.163,97.351 246.163,94.251 245.363,94.251 245.363,93.251" style="fill:none;stroke-width:0.050000mm;stroke:black"/>
<polygon points="212.313,93.251 212.313,94.251 211.513,94.251 211.513,97.351 212.313,97.351 212.313,103.151 211.513,103.151 211.513,106.251 212.313,106.251 212.313,107.251 226.313,107.251 226.313,106.251 227.113,106.251 227.113,103.151 226.313,103.151 226.313,97.351 227.113,97.351 227.113,94.251 226.313,94.251 226.313,93.251" style="fill:none;stroke-width:0.050000mm;stroke:black"/>
<polygon points="193.263,93.251 193.263,94.251 192.463,94.251 192.463,97.351 193.263,97.351 193.263,103.151 192.463,103.151 192.463,106.251 193.263,106.251 193.263,107.251 207.263,107.251 207.263,106.251 208.063,106.251 208.063,103.151 207.263,103.151 207.263,97.351 208.063,97.351 208.063,94.251 207.263,94.251 207.263,93.251" style="fill:none;stroke-width:0.050000mm;stroke:black"/>
<polygon points="174.213,93.251 174.213,94.251 173.413,94.251 173.413,97.351 174.213,97.351 174.213,103.151 173.413,103.151 173.413,106.251 174.213,106.251 174.213,107.251 188.213,107.251 188.213,106.251 189.013,106.251 189.013,103.151 188.213,103.151 188.213,97.351 189.013,97.351 189.013,94.251 188.213,94.251 188.213,93.251" style="fill:none;stroke-width:0.050000mm;stroke:black"/>
<polygon points="155.163,93.251 155.163,94.251 154.363,94.251 154.363,97.351 155.163,97.351 155.163,103.151 154.363,103.151 154.363,106.251 155.163,106.251 155.163,107.251 169.163,107.251 169.163,106.251 169.963,106.251 169.963,103.151 169.163,103.151 169.163,97.351 169.963,97.351 169.963,94.251 169.163,94.251 169.163,93.251" style="fill:none;stroke-width:0.050000mm;stroke:black"/>
<polygon points="136.113,93.251 136.113,94.251 135.313,94.251 135.313,97.351 136.113,97.351 136.113,103.151 135.313,103.151 135.313,106.251 136.113,106.251 136.113,107.251 150.113,107.251 150.113,106.251 150.913,106.251 150.913,103.151 150.113,103.151 150.113,97.351 150.913,97.351 150.913,94.251 150.113,94.251 150.113,93.251" style="fill:none;stroke-width:0.050000mm;stroke:black"/>
<polygon points="117.063,93.251 117.063,94.251 116.263,94.251 116.263,97.351 117.063,97.351 117.063,103.151 116.263,103.151 116.263,106.251 117.063,106.251 117.063,107.251 131.063,107.251 131.063,106.251 131.863,106.251 131.863,103.151 131.063,103.151 131.063,97.351 131.863,97.351 131.863,94.251 131.063,94.251 131.063,93.251" style="fill:none;stroke-width:0.050000mm;stroke:black"/>
<polygon points="98.013,93.251 98.013,94.251 97.213,94.251 97.213,97.351 98.013,97.351 98.013,103.151 97.213,103.151 97.213,106.251 98.013,106.251 98.013,107.251 112.013,107.251 112.013,106.251 112.813,106.251 112.813,103.151 112.013,103.151 112.013,97.351 112.813,97.351 112.813,94.251 112.013,94.251 112.013,93.251" style="fill:none;stroke-width:0.050000mm;stroke:black"/>
<polygon points="78.963,93.251 78.963,94.251 78.163,94.251 78.163,97.351 78.963,97.351 78.963,103.151 78.163,103.151 78.163,106.251 78.963,106.251 78.963,107.251 92.963,107.251 92.963,106.251 93.763,106.251 93.763,103.151 92.963,103.151 92.963,97.351 93.763,97.351 93.763,94.251 92.963,94.251 92.963,93.251" style="fill:none;stroke-width:0.050000mm;stroke:black"/>
<polygon points="7.526,93.251 7.526,94.251 6.726,94.251 6.726,97.351 7.526,97.351 7.526,103.151 6.726,103.151 6.726,106.251 7.526,106.251 7.526,107.251 21.526,107.251 21.526,106.251 22.326,106.251 22.326,103.151 21.526,103.151 21.526,97.351 22.326,97.351 22.326,94.251 21.526,94.251 21.526,93.251" style="fill:none;stroke-width:0.050000mm;stroke:black"/>
<polygon points="290.894,74.201 290.894,75.201 290.094,75.201 290.094,78.301 290.894,78.301 290.894,78.901 289.369,78.901 289.369,75.671 287.644,75.671 287.644,74.751 284.344,74.751 284.344,75.671 282.619,75.671 282.619,78.901 281.794,78.901 281.794,81.701 282.619,81.701 282.619,87.971 284.344,87.971 284.344,88.951 287.644,88.951 287.644,87.971 289.369,87.971 289.369,83.501 290.894,83.501 290.894,84.101 290.094,84.101 290.094,87.201 290.894,87.201 290.894,88.201 304.894,88.201 304.894,87.201 305.694,87.201 305.694,84.101 304.894,84.101 304.894,83.501 306.419,83.501 306.419,87.971 308.144,87.971 308.144,88.951 311.444,88.951 311.444,87.971 313.169,87.971 313.169,81.701 313.994,81.701 313.994,78.901 313.169,78.901 313.169,75.671 311.444,75.671 311.444,74.751 308.144,74.751 308.144,75.671 306.419,75.671 306.419,78.901 304.894,78.901 304.894,78.301 305.694,78.301 305.694,75.201 304.894,75.201 304.894,74.201" style="fill:none;stroke-width:0.050000mm;stroke:black"/>
<polygon points="417.101,74.201 417.101,75.201 416.301,75.201 416.301,78.301 417.101,78.301 417.101,84.101 416.301,84.101 416.301,87.201 417.101,87.201 417.101,88.201 431.101,88.201 431.101,87.201 431.901,87.201 431.901,84.101 431.101,84.101 431.101,78.301 431.901,78.301 431.901,75.201 431.101,75.201 431.101,74.201" style="fill:none;stroke-width:0.050000mm;stroke:black"/>
<polygon points="398.051,74.201 398.051,75.201 397.251,75.201 397.251,78.301 398.051,78.301 398.051,84.101 397.251,84.101 397.251,87.201 398.051,87.201 398.051,88.201 412.051,88.201 412.051,87.201 412.851,87.201 412.851,84.101 412.051,84.101 412.051,78.301 412.851,78.301 412.851,75.201 412.051,75.201 412.051,74.201" style="fill:none;stroke-width:0.050000mm;stroke:black"/>
<polygon points="379.001,74.201 379.001,75.201 378.201,75.201 378.201,78.301 379.001,78.301 379.001,84.101 378.201,84.101 378.201,87.201 379.001,87.201 379.001,88.201 393.001,88.201 393.001,87.201 393.801,87.201 393.801,84.101 393.001,84.101 393.001,78.301 393.801,78.301 393.801,75.201 393.001,75.201 393.001,74.201" style="fill:none;stroke-width:0.050000mm;stroke:black"/>
<polygon points="259.938,74.201 259.938,75.201 259.138,75.201 259.138,78.301 259.938,78.301 259.938,84.101 259.138,84.101 259.138,87.201 259.938,87.201 259.938,88.201 273.938,88.201 273.938,87.201 274.738,87.201 274.738,84.101 273.938,84.101 273.938,78.301 274.738,78.301 274.738,75.201 273.938,75.201 273.938,74.201" style="fill:none;stroke-width:0.050000mm;stroke:black"/>
<polygon points="240.888,74.201 240.888,75.201 240.088,75.201 240.088,78.301 240.888,78.301 240.888,84.101 240.088,84.101 240.088,87.201 240.888,87.201 240.888,88.201 254.888,88.201 254.888,87.201 255.688,87.201 255.688,84.101 254.888,84.101 254.888,78.301 255.688,78.301 255.688,75.201 254.888,75.201 254.888,74.201" style="fill:none;stroke-width:0.050000mm;stroke:black"/>
<polygon points="221.838,74.201 221.838,75.201 221.038,75.201 221.038,78.301 221.838,78.301 221.838,84.101 221.038,84.101 221.038,87.201 221.838,87.201 221.838,88.201 235.838,88.201 235.838,87.201 236.638,87.201 236.638,84.101 235.838,84.101 235.838,78.301 236.638,78.301 236.638,75.201 235.838,75.201 235.838,74.201" style="fill:none;stroke-width:0.050000mm;stroke:black"/>
<polygon points="202.788,74.201 202.788,75.201 201.988,75.201 201.988,78.301 202.788,78.301 202.788,84.101 201.988,84.101 201.988,87.201 202.788,87.201 202.788,88.201 216.788,88.201 216.788,87.201 217.588,87.201 217.588,84.101 216.788,84.101 216.788,78.301 217.588,78.301 217.588,75.201 216.788,75.201 216.788,74.201" style="fill:none;stroke-width:0.050000mm;stroke:black"/>
<polygon points="183.738,74.201 183.738,75.201 182.938,75.201 182.938,78.301 183.738,78.301 183.738,84.101 182.938,84.101 182.938,87.201 183.738,87.201 183.738,88.201 197.738,88.201 197.738,87.201 198.538,87.201 198.538,84.101 197.738,84.101 197.738,78.301 198.538,78.301 198.538,75.201 197.738,75.201 197.738,74.201" style="fill:none;stroke-width:0.050000mm;stroke:black"/>
<polygon points="164.688,74.201 164.688,75.201 163.888,75.201 163.888,78.301 164.688,78.301 164.688,84.101 163.888,84.101 163.888,87.201 164.688,87.201 164.688,88.201 178.688,88.201 178.688,87.201 179.488,87.201 179.488,84.101 178.688,84.101 178.688,78.301 179.488,78.301 179.488,75.201 178.688,75.201 178.688,74.201" style="fill:none;stroke-width:0.050000mm;stroke:black"/>
<polygon points="145.638,74.201 145.638,75.201 144.838,75.201 144.838,78.301 145.638,78.301 145.638,84.101 144.838,84.101 144.838,87.201 145.638,87.201 145.638,88.201 159.638,88.201 159.638,87.201 160.438,87.201 160.438,84.101 159.638,84.101 159.638,78.301 160.438,78.301 160.438,75.201 159.638,75.201 159.638,74.201" style="fill:none;stroke-width:0.050000mm;stroke:black"/>
<polygon points="126.588,74.201 126.588,75.201 125.788,75.201 125.788,78.301 126.588,78.301 126.588,84.101 125.788,84.101 125.788,87.201 126.588,87.201 126.588,88.201 140.588,88.201 140.588,87.201 141.388,87.201 141.388,84.101 140.588,84.101 140.588,78.301 141.388,78.301 141.388,75.201 140.588,75.201 140.588,74.201" style="fill:none;stroke-width:0.050000mm;stroke:black"/>
<polygon points="107.538,74.201 107.538,75.201 106.738,75.201 106.738,78.301 107.538,78.301 107.538,84.101 106.738,84.101 106.738,87.201 107.538,87.201 107.538,88.201 121.538,88.201 121.538,87.201 122.338,87.201 122.338,84.101 121.538,84.101 121.538,78.301 122.338,78.301 122.338,75.201 121.538,75.201 121.538,74.201" style="fill:none;stroke-width:0.050000mm;stroke:black"/>
<polygon points="88.488,74.201 88.488,75.201 87.688,75.201 87.688,78.301 88.488,78.301 88.488,84.101 87.688,84.101 87.688,87.201 88.488,87.201 88.488,88.201 102.488,88.201 102.488,87.201 103.288,87.201 103.288,84.101 102.488,84.101 102.488,78.301 103.288,78.301 103.288,75.201 102.488,75.201 102.488,74.201" style="fill:none;stroke-width:0.050000mm;stroke:black"/>
<polygon points="69.438,74.201 69.438,75.201 68.638,75.201 68.638,78.301 69.438,78.301 69.438,84.101 68.638,84.101 68.638,87.201 69.438,87.201 69.438,88.201 83.438,88.201 83.438,87.201 84.238,87.201 84.238,84.101 83.438,84.101 83.438,78.301 84.238,78.301 84.238,75.201 83.438,75.201 83.438,74.201" style="fill:none;stroke-width:0.050000mm;stroke:black"/>
<polygon points="43.244,74.201 43.244,75.201 42.444,75.201 42.444,78.301 43.244,78.301 43.244,84.101 42.444,84.101 42.444,87.201 43.244,87.201 43.244,88.201 57.244,88.201 57.244,87.201 58.044,87.201 58.044,84.101 57.244,84.101 57.244,78.301 58.044,78.301 58.044,75.201 57.244,75.201 57.244,74.201" style="fill:none;stroke-width:0.050000mm;stroke:black"/>
<polygon points="7.526,74.201 7.526,75.201 6.726,75.201 6.726,78.301 7.526,78.301 7.526,84.101 6.726,84.101 6.726,87.201 7.526,87.201 7.526,88.201 21.526,88.201 21.526,87.201 22.326,87.201 22.326,84.101 21.526,84.101 21.526,78.301 22.326,78.301 22.326,75.201 21.526,75.201 21.526,74.201" style="fill:none;stroke-width:0.050000mm;stroke:black"/>
<polygon points="442.651,55.576 442.651,56.401 436.381,56.401 436.381,58.126 435.401,58.126 435.401,61.426 436.381,61.426 436.381,63.151 440.851,63.151 440.851,64.676 440.251,64.676 440.251,63.876 437.151,63.876 437.151,64.676 436.151,64.676 436.151,78.676 437.151,78.676 437.151,79.476 440.251,79.476 440.251,78.676 440.851,78.676 440.851,80.201 436.381,80.201 436.381,81.926 435.401,81.926 435.401,85.226 436.381,85.226 436.381,86.951 442.651,86.951 442.651,87.776 445.451,87.776 445.451,86.951 448.681,86.951 448.681,85.226 449.601,85.226 449.601,81.926 448.681,81.926 448.681,80.201 445.451,80.201 445.451,78.676 446.051,78.676 446.051,79.476 449.151,79.476 449.151,78.676 450.151,78.676 450.151,64.676 449.151,64.676 449.151,63.876 446.051,63.876 446.051,64.676 445.451,64.676 445.451,63.151 448.681,63.151 448.681,61.426 449.601,61.426 449.601,58.126 448.681,58.126 448.681,56.401 445.451,56.401 445.451,55.576" style="fill:none;stroke-width:0.050000mm;stroke:black"/>
<polygon points="417.101,55.151 417.101,56.151 416.301,56.151 416.301,59.251 417.101,59.251 417.101,65.051 416.301,65.051 416.301,68.151 417.101,68.151 417.101,69.151 431.101,69.151 431.101,68.151 431.901,68.151 431.901,65.051 431.101,65.051 431.101,59.251 431.901,59.251 431.901,56.151 431.101,56.151 431.101,55.151" style="fill:none;stroke-width:0.050000mm;stroke:black"/>
<polygon points="398.051,55.151 398.051,56.151 397.251,56.151 397.251,59.251 398.051,59.251 398.051,65.051 397.251,65.051 397.251,68.151 398.051,68.151 398.051,69.151 412.051,69.151 412.051,68.151 412.851,68.151 412.851,65.051 412.051,65.051 412.051,59.251 412.851,59.251 412.851,56.151 412.051,56.151 412.051,55.151" style="fill:none;stroke-width:0.050000mm;stroke:black"/>
<polygon points="379.001,55.151 379.001,56.151 378.201,56.151 378.201,59.251 379.001,59.251 379.001,65.051 378.201,65.051 378.201,68.151 379.001,68.151 379.001,69.151 393.001,69.151 393.001,68.151 393.801,68.151 393.801,65.051 393.001,65.051 393.001,59.251 393.801,59.251 393.801,56.151 393.001,56.151 393.001,55.151" style="fill:none;stroke-width:0.050000mm;stroke:black"/>
<polygon points="350.426,55.151 350.426,56.151 349.626,56.151 349.626,59.251 350.426,59.251 350.426,65.051 349.626,65.051 349.626,68.151 350.426,68.151 350.426,69.151 364.426,69.151 364.426,68.151 365.226,68.151 365.226,65.051 364.426,65.051 364.426,59.251 365.226,59.251 365.226,56.151 364.426,56.151 364.426,55.151" style="fill:none;stroke-width:0.050000mm;stroke:black"/>
<polygon points="331.376,55.151 331.376,56.151 330.576,56.151 330.576,59.251 331.376,59.251 331.376,65.051 330.576,65.051 330.576,68.151 331.376,68.151 331.376,69.151 345.376,69.151 345.376,68.151 346.176,68.151 346.176,65.051 345.376,65.051 345.376,59.251 346.176,59.251 346.176,56.151 345.376,56.151 345.376,55.151" style="fill:none;stroke-width:0.050000mm;stroke:black"/>
<polygon points="298.038,55.151 298.038,56.151 297.238,56.151 297.238,59.251 298.038,59.251 298.038,65.051 297.238,65.051 297.238,68.151 298.038,68.151 298.038,69.151 312.038,69.151 312.038,68.151 312.838,68.151 312.838,65.051 312.038,65.051 312.038,59.251 312.838,59.251 312.838,56.151 312.038,56.151 312.038,55.151" style="fill:none;stroke-width:0.050000mm;stroke:black"/>
<polygon points="274.226,55.151 274.226,56.151 273.426,56.151 273.426,59.251 274.226,59.251 274.226,65.051 273.426,65.051 273.426,68.151 274.226,68.151 274.226,69.151 288.226,69.151 288.226,68.151 289.026,68.151 289.026,65.051 288.226,65.051 288.226,59.251 289.026,59.251 289.026,56.151 288.226,56.151 288.226,55.151" style="fill:none;stroke-width:0.050000mm;stroke:black"/>
<polygon points="255.176,55.151 255.176,56.151 254.376,56.151 254.376,59.251 255.176,59.251 255.176,65.051 254.376,65.051 254.376,68.151 255.176,68.151 255.176,69.151 269.176,69.151 269.176,68.151 269.976,68.151 269.976,65.051 269.176,65.051 269.176,59.251 269.976,59.251 269.976,56.151 269.176,56.151 269.176,55.151" style="fill:none;stroke-width:0.050000mm;stroke:black"/>
<polygon points="236.126,55.151 236.126,56.151 235.326,56.151 235.326,59.251 236.126,59.251 236.126,65.051 235.326,65.051 235.326,68.151 236.126,68.151 236.126,69.151 250.126,69.151 250.126,68.151 250.926,68.151 250.926,65.051 250.126,65.051 250.126,59.251 250.926,59.251 250.926,56.151 250.126,56.151 250.126,55.151" style="fill:none;stroke-width:0.050000mm;stroke:black"/>
<polygon points="217.076,55.151 217.076,56.151 216.276,56.151 216.276,59.251 217.076,59.251 217.076,65.051 216.276,65.051 216.276,68.151 217.076,68.151 217.076,69.151 231.076,69.151 231.076,68.151 231.876,68.151 231.876,65.051 231.076,65.051 231.076,59.251 231.876,59.251 231.876,56.151 231.076,56.151 231.076,55.151" style="fill:none;stroke-width:0.050000mm;stroke:black"/>
<polygon points="198.026,55.151 198.026,56.151 197.226,56.151 197.226,59.251 198.026,59.251 198.026,65.051 197.226,65.051 197.226,68.151 198.026,68.151 198.026,69.151 212.026,69.151 212.026,68.151 212.826,68.151 212.826,65.051 212.026,65.051 212.026,59.251 212.826,59.251 212.826,56.151 212.026,56.151 212.026,55.151" style="fill:none;stroke-width:0.050000mm;stroke:black"/>
<polygon points="178.976,55.151 178.976,56.151 178.176,56.151 178.176,59.251 178.976,59.251 178.976,65.051 178.176,65.051 178.176,68.151 178.976,68.151 178.976,69.151 192.976,69.151 192.976,68.151 193.776,68.151 193.776,65.051 192.976,65.051 192.976,59.251 193.776,59.251 193.776,56.151 192.976,56.151 192.976,55.151" style="fill:none;stroke-width:0.050000mm;stroke:black"/>
<polygon points="159.926,55.151 159.926,56.151 159.126,56.151 159.126,59.251 159.926,59.251 159.926,65.051 159.126,65.051 159.126,68.151 159.926,68.151 159.926,69.151 173.926,69.151 173.926,68.151 174.726,68.151 174.726,65.051 173.926,65.051 173.926,59.251 174.726,59.251 174.726,56.151 173.926,56.151 173.926,55.151" style="fill:none;stroke-width:0.050000mm;stroke:black"/>
<polygon points="140.876,55.151 140.876,56.151 140.076,56.151 140.076,59.251 140.876,59.251 140.876,65.051 140.076,65.051 140.076,68.151 140.876,68.151 140.876,69.151 154.876,69.151 154.876,68.151 155.676,68.151 155.676,65.051 154.876,65.051 154.876,59.251 155.676,59.251 155.676,56.151 154.876,56.151 154.876,55.151" style="fill:none;stroke-width:0.050000mm;stroke:black"/>
<polygon points="121.826,55.151 121.826,56.151 121.026,56.151 121.026,59.251 121.826,59.251 121.826,65.051 121.026,65.051 121.026,68.151 121.826,68.151 121.826,69.151 135.826,69.151 135.826,68.151 136.626,68.151 136.626,65.051 135.826,65.051 135.826,59.251 136.626,59.251 136.626,56.151 135.826,56.151 135.826,55.151" style="fill:none;stroke-width:0.050000mm;stroke:black"/>
<polygon points="102.776,55.151 102.776,56.151 101.976,56.151 101.976,59.251 102.776,59.251 102.776,65.051 101.976,65.051 101.976,68.151 102.776,68.151 102.776,69.151 116.776,69.151 116.776,68.151 117.576,68.151 117.576,65.051 116.776,65.051 116.776,59.251 117.576,59.251 117.576,56.151 116.776,56.151 116.776,55.151" style="fill:none;stroke-width:0.050000mm;stroke:black"/>
<polygon points="83.726,55.151 83.726,56.151 82.926,56.151 82.926,59.251 83.726,59.251 83.726,65.051 82.926,65.051 82.926,68.151 83.726,68.151 83.726,69.151 97.726,69.151 97.726,68.151 98.526,68.151 98.526,65.051 97.726,65.051 97.726,59.251 98.526,59.251 98.526,56.151 97.726,56.151 97.726,55.151" style="fill:none;stroke-width:0.050000mm;stroke:black"/>
<polygon points="64.676,55.151 64.676,56.151 63.876,56.151 63.876,59.251 64.676,59.251 64.676,65.051 63.876,65.051 63.876,68.151 64.676,68.151 64.676,69.151 78.676,69.151 78.676,68.151 79.476,68.151 79.476,65.051 78.676,65.051 78.676,59.251 79.476,59.251 79.476,56.151 78.676,56.151 78.676,55.151" style="fill:none;stroke-width:0.050000mm;stroke:black"/>
<polygon points="40.863,55.151 40.863,56.151 40.063,56.151 40.063,59.251 40.863,59.251 40.863,65.051 40.063,65.051 40.063,68.151 40.863,68.151 40.863,69.151 54.863,69.151 54.863,68.151 55.663,68.151 55.663,65.051 54.863,65.051 54.863,59.251 55.663,59.251 55.663,56.151 54.863,56.151 54.863,55.151" style="fill:none;stroke-width:0.050000mm;stroke:black"/>
<polygon points="7.526,55.151 7.526,56.151 6.726,56.151 6.726,59.251 7.526,59.251 7.526,65.051 6.726,65.051 6.726,68.151 7.526,68.151 7.526,69.151 21.526,69.151 21.526,68.151 22.326,68.151 22.326,65.051 21.526,65.051 21.526,59.251 22.326,59.251 22.326,56.151 21.526,56.151 21.526,55.151" style="fill:none;stroke-width:0.050000mm;stroke:black"/>
<polygon points="293.276,36.101 293.276,37.101 292.476,37.101 292.476,40.201 293.276,40.201 293.276,40.801 291.751,40.801 291.751,37.571 290.026,37.571 290.026,36.651 286.726,36.651 286.726,37.571 285.001,37.571 285.001,40.801 284.176,40.801 284.176,43.601 285.001,43.601 285.001,49.871 286.726,49.871 286.726,50.851 290.026,50.851 290.026,49.871 291.751,49.871 291.751,45.401 293.276,45.401 293.276,46.001 292.476,46.001 292.476,49.101 293.276,49.101 293.276,50.101 307.276,50.101 307.276,49.101 308.076,49.101 308.076,46.001 307.276,46.001 307.276,45.401 308.801,45.401 308.801,49.871 310.526,49.871 310.526,50.851 313.826,50.851 313.826,49.871 315.551,49.871 315.551,43.601 316.376,43.601 316.376,40.801 315.551,40.801 315.551,37.571 313.826,37.571 313.826,36.651 310.526,36.651 310.526,37.571 308.801,37.571 308.801,40.801 307.276,40.801 307.276,40.201 308.076,40.201 308.076,37.101 307.276,37.101 307.276,36.101" style="fill:none;stroke-width:0.050000mm;stroke:black"/>
<polygon points="436.151,36.101 436.151,37.101 435.351,37.101 435.351,40.201 436.151,40.201 436.151,46.001 435.351,46.001 435.351,49.101 436.151,49.101 436.151,50.101 450.151,50.101 450.151,49.101 450.951,49.101 450.951,46.001 450.151,46.001 450.151,40.201 450.951,40.201 450.951,37.101 450.151,37.101 450.151,36.101" style="fill:none;stroke-width:0.050000mm;stroke:black"/>
<polygon points="417.101,36.101 417.101,37.101 416.301,37.101 416.301,40.201 417.101,40.201 417.101,46.001 416.301,46.001 416.301,49.101 417.101,49.101 417.101,50.101 431.101,50.101 431.101,49.101 431.901,49.101 431.901,46.001 431.101,46.001 431.101,40.201 431.901,40.201 431.901,37.101 431.101,37.101 431.101,36.101" style="fill:none;stroke-width:0.050000mm;stroke:black"/>
<polygon points="398.051,36.101 398.051,37.101 397.251,37.101 397.251,40.201 398.051,40.201 398.051,46.001 397.251,46.001 397.251,49.101 398.051,49.101 398.051,50.101 412.051,50.101 412.051,49.101 412.851,49.101 412.851,46.001 412.051,46.001 412.051,40.201 412.851,40.201 412.851,37.101 412.051,37.101 412.051,36.101" style="fill:none;stroke-width:0.050000mm;stroke:black"/>
<polygon points="379.001,36.101 379.001,37.101 378.201,37.101 378.201,40.201 379.001,40.201 379.001,46.001 378.201,46.001 378.201,49.101 379.001,49.101 379.001,50.101 393.001,50.101 393.001,49.101 393.801,49.101 393.801,46.001 393.001,46.001 393.001,40.201 393.801,40.201 393.801,37.101 393.001,37.101 393.001,36.101" style="fill:none;stroke-width:0.050000mm;stroke:black"/>
<polygon points="350.426,36.101 350.426,37.101 349.626,37.101 349.626,40.201 350.426,40.201 350.426,46.001 349.626,46.001 349.626,49.101 350.426,49.101 350.426,50.101 364.426,50.101 364.426,49.101 365.226,49.101 365.226,46.001 364.426,46.001 364.426,40.201 365.226,40.201 365.226,37.101 364.426,37.101 364.426,36.101" style="fill:none;stroke-width:0.050000mm;stroke:black"/>
<polygon points="331.376,36.101 331.376,37.101 330.576,37.101 330.576,40.201 331.376,40.201 331.376,46.001 330.576,46.001 330.576,49.101 331.376,49.101 331.376,50.101 345.376,50.101 345.376,49.101 346.176,49.101 346.176,46.001 345.376,46.001 345.376,40.201 346.176,40.201 346.176,37.101 345.376,37.101 345.376,36.101" style="fill:none;stroke-width:0.050000mm;stroke:black"/>
<polygon points="264.701,36.101 264.701,37.101 263.901,37.101 263.901,40.201 264.701,40.201 264.701,46.001 263.901,46.001 263.901,49.101 264.701,49.101 264.701,50.101 278.701,50.101 278.701,49.101 279.501,49.101 279.501,46.001 278.701,46.001 278.701,40.201 279.501,40.201 279.501,37.101 278.701,37.101 278.701,36.101" style="fill:none;stroke-width:0.050000mm;stroke:black"/>
<polygon points="245.651,36.101 245.651,37.101 244.851,37.101 244.851,40.201 245.651,40.201 245.651,46.001 244.851,46.001 244.851,49.101 245.651,49.101 245.651,50.101 259.650,50.101 259.650,49.101 260.451,49.101 260.451,46.001 259.650,46.001 259.650,40.201 260.451,40.201 260.451,37.101 259.650,37.101 259.650,36.101" style="fill:none;stroke-width:0.050000mm;stroke:black"/>
<polygon points="226.601,36.101 226.601,37.101 225.801,37.101 225.801,40.201 226.601,40.201 226.601,46.001 225.801,46.001 225.801,49.101 226.601,49.101 226.601,50.101 240.601,50.101 240.601,49.101 241.401,49.101 241.401,46.001 240.601,46.001 240.601,40.201 241.401,40.201 241.401,37.101 240.601,37.101 240.601,36.101" style="fill:none;stroke-width:0.050000mm;stroke:black"/>
<polygon points="207.551,36.101 207.551,37.101 206.751,37.101 206.751,40.201 207.551,40.201 207.551,46.001 206.751,46.001 206.751,49.101 207.551,49.101 207.551,50.101 221.551,50.101 221.551,49.101 222.351,49.101 222.351,46.001 221.551,46.001 221.551,40.201 222.351,40.201 222.351,37.101 221.551,37.101 221.551,36.101" style="fill:none;stroke-width:0.050000mm;stroke:black"/>
<polygon points="188.501,36.101 188.501,37.101 187.701,37.101 187.701,40.201 188.501,40.201 188.501,46.001 187.701,46.001 187.701,49.101 188.501,49.101 188.501,50.101 202.501,50.101 202.501,49.101 203.301,49.101 203.301,46.001 202.501,46.001 202.501,40.201 203.301,40.201 203.301,37.101 202.501,37.101 202.501,36.101" style="fill:none;stroke-width:0.050000mm;stroke:black"/>
<polygon points="169.451,36.101 169.451,37.101 168.651,37.101 168.651,40.201 169.451,40.201 169.451,46.001 168.651,46.001 168.651,49.101 169.451,49.101 169.451,50.101 183.451,50.101 183.451,49.101 184.251,49.101 184.251,46.001 183.451,46.001 183.451,40.201 184.251,40.201 184.251,37.101 183.451,37.101 183.451,36.101" style="fill:none;stroke-width:0.050000mm;stroke:black"/>
<polygon points="150.401,36.101 150.401,37.101 149.601,37.101 149.601,40.201 150.401,40.201 150.401,46.001 149.601,46.001 149.601,49.101 150.401,49.101 150.401,50.101 164.401,50.101 164.401,49.101 165.201,49.101 165.201,46.001 164.401,46.001 164.401,40.201 165.201,40.201 165.201,37.101 164.401,37.101 164.401,36.101" style="fill:none;stroke-width:0.050000mm;stroke:black"/>
<polygon points="131.351,36.101 131.351,37.101 130.550,37.101 130.550,40.201 131.351,40.201 131.351,46.001 130.550,46.001 130.550,49.101 131.351,49.101 131.351,50.101 145.351,50.101 145.351,49.101 146.151,49.101 146.151,46.001 145.351,46.001 145.351,40.201 146.151,40.201 146.151,37.101 145.351,37.101 145.351,36.101" style="fill:none;stroke-width:0.050000mm;stroke:black"/>
<polygon points="112.301,36.101 112.301,37.101 111.501,37.101 111.501,40.201 112.301,40.201 112.301,46.001 111.501,46.001 111.501,49.101 112.301,49.101 112.301,50.101 126.301,50.101 126.301,49.101 127.101,49.101 127.101,46.001 126.301,46.001 126.301,40.201 127.101,40.201 127.101,37.101 126.301,37.101 126.301,36.101" style="fill:none;stroke-width:0.050000mm;stroke:black"/>
<polygon points="93.251,36.101 93.251,37.101 92.451,37.101 92.451,40.201 93.251,40.201 93.251,46.001 92.451,46.001 92.451,49.101 93.251,49.101 93.251,50.101 107.251,50.101 107.251,49.101 108.051,49.101 108.051,46.001 107.251,46.001 107.251,40.201 108.051,40.201 108.051,37.101 107.251,37.101 107.251,36.101" style="fill:none;stroke-width:0.050000mm;stroke:black"/>
<polygon points="74.201,36.101 74.201,37.101 73.401,37.101 73.401,40.201 74.201,40.201 74.201,46.001 73.401,46.001 73.401,49.101 74.201,49.101 74.201,50.101 88.201,50.101 88.201,49.101 89.001,49.101 89.001,46.001 88.201,46.001 88.201,40.201 89.001,40.201 89.001,37.101 88.201,37.101 88.201,36.101" style="fill:none;stroke-width:0.050000mm;stroke:black"/>
<polygon points="55.151,36.101 55.151,37.101 54.351,37.101 54.351,40.201 55.151,40.201 55.151,46.001 54.351,46.001 54.351,49.101 55.151,49.101 55.151,50.101 69.151,50.101 69.151,49.101 69.951,49.101 69.951,46.001 69.151,46.001 69.151,40.201 69.951,40.201 69.951,37.101 69.151,37.101 69.151,36.101" style="fill:none;stroke-width:0.050000mm;stroke:black"/>
<polygon points="36.101,36.101 36.101,37.101 35.301,37.101 35.301,40.201 36.101,40.201 36.101,46.001 35.301,46.001 35.301,49.101 36.101,49.101 36.101,50.101 50.101,50.101 50.101,49.101 50.901,49.101 50.901,46.001 50.101,46.001 50.101,40.201 50.901,40.201 50.901,37.101 50.101,37.101 50.101,36.101" style="fill:none;stroke-width:0.050000mm;stroke:black"/>
<polygon points="7.526,36.101 7.526,37.101 6.726,37.101 6.726,40.201 7.526,40.201 7.526,46.001 6.726,46.001 6.726,49.101 7.526,49.101 7.526,50.101 21.526,50.101 21.526,49.101 22.326,49.101 22.326,46.001 21.526,46.001 21.526,40.201 22.326,40.201 22.326,37.101 21.526,37.101 21.526,36.101" style="fill:none;stroke-width:0.050000mm;stroke:black"/>
<polygon points="417.101,7.526 417.101,8.526 416.301,8.526 416.301,11.626 417.101,11.626 417.101,17.426 416.301,17.426 416.301,20.526 417.101,20.526 417.101,21.526 431.101,21.526 431.101,20.526 431.901,20.526 431.901,17.426 431.101,17.426 431.101,11.626 431.901,11.626 431.901,8.526 431.101,8.526 431.101,7.526" style="fill:none;stroke-width:0.050000mm;stroke:black"/>
<polygon points="398.051,7.526 398.051,8.526 397.251,8.526 397.251,11.626 398.051,11.626 398.051,17.426 397.251,17.426 397.251,20.526 398.051,20.526 398.051,21.526 412.051,21.526 412.051,20.526 412.851,20.526 412.851,17.426 412.051,17.426 412.051,11.626 412.851,11.626 412.851,8.526 412.051,8.526 412.051,7.526" style="fill:none;stroke-width:0.050000mm;stroke:black"/>
<polygon points="369.476,7.526 369.476,8.526 368.676,8.526 368.676,11.626 369.476,11.626 369.476,17.426 368.676,17.426 368.676,20.526 369.476,20.526 369.476,21.526 383.476,21.526 383.476,20.526 384.276,20.526 384.276,17.426 383.476,17.426 383.476,11.626 384.276,11.626 384.276,8.526 383.476,8.526 383.476,7.526" style="fill:none;stroke-width:0.050000mm;stroke:black"/>
<polygon points="350.426,7.526 350.426,8.526 349.626,8.526 349.626,11.626 350.426,11.626 350.426,17.426 349.626,17.426 349.626,20.526 350.426,20.526 350.426,21.526 364.426,21.526 364.426,20.526 365.226,20.526 365.226,17.426 364.426,17.426 364.426,11.626 365.226,11.626 365.226,8.526 364.426,8.526 364.426,7.526" style="fill:none;stroke-width:0.050000mm;stroke:black"/>
<polygon points="331.376,7.526 331.376,8.526 330.576,8.526 330.576,11.626 331.376,11.626 331.376,17.426 330.576,17.426 330.576,20.526 331.376,20.526 331.376,21.526 345.376,21.526 345.376,20.526 346.176,20.526 346.176,17.426 345.376,17.426 345.376,11.626 346.176,11.626 346.176,8.526 345.376,8.526 345.376,7.526" style="fill:none;stroke-width:0.050000mm;stroke:black"/>
<polygon points="302.801,7.526 302.801,8.526 302.001,8.526 302.001,11.626 302.801,11.626 302.801,17.426 302.001,17.426 302.001,20.526 302.801,20.526 302.801,21.526 316.801,21.526 316.801,20.526 317.601,20.526 317.601,17.426 316.801,17.426 316.801,11.626 317.601,11.626 317.601,8.526 316.801,8.526 316.801,7.526" style="fill:none;stroke-width:0.050000mm;stroke:black"/>
<polygon points="283.751,7.526 283.751,8.526 282.951,8.526 282.951,11.626 283.751,11.626 283.751,17.426 282.951,17.426 282.951,20.526 283.751,20.526 283.751,21.526 297.751,21.526 297.751,20.526 298.551,20.526 298.551,17.426 297.751,17.426 297.751,11.626 298.551,11.626 298.551,8.526 297.751,8.526 297.751,7.526" style="fill:none;stroke-width:0.050000mm;stroke:black"/>
<polygon points="264.701,7.526 264.701,8.526 263.901,8.526 263.901,11.626 264.701,11.626 264.701,17.426 263.901,17.426 263.901,20.526 264.701,20.526 264.701,21.526 278.701,21.526 278.701,20.526 279.501,20.526 279.501,17.426 278.701,17.426 278.701,11.626 279.501,11.626 279.501,8.526 278.701,8.526 278.701,7.526" style="fill:none;stroke-width:0.050000mm;stroke:black"/>
<polygon points="245.651,7.526 245.651,8.526 244.851,8.526 244.851,11.626 245.651,11.626 245.651,17.426 244.851,17.426 244.851,20.526 245.651,20.526 245.651,21.526 259.650,21.526 259.650,20.526 260.451,20.526 260.451,17.426 259.650,17.426 259.650,11.626 260.451,11.626 260.451,8.526 259.650,8.526 259.650,7.526" style="fill:none;stroke-width:0.050000mm;stroke:black"/>
<polygon points="217.076,7.526 217.076,8.526 216.276,8.526 216.276,11.626 217.076,11.626 217.076,17.426 216.276,17.426 216.276,20.526 217.076,20.526 217.076,21.526 231.076,21.526 231.076,20.526 231.876,20.526 231.876,17.426 231.076,17.426 231.076,11.626 231.876,11.626 231.876,8.526 231.076,8.526 231.076,7.526" style="fill:none;stroke-width:0.050000mm;stroke:black"/>
<polygon points="198.026,7.526 198.026,8.526 197.226,8.526 197.226,11.626 198.026,11.626 198.026,17.426 197.226,17.426 197.226,20.526 198.026,20.526 198.026,21.526 212.026,21.526 212.026,20.526 212.826,20.526 212.826,17.426 212.026,17.426 212.026,11.626 212.826,11.626 212.826,8.526 212.026,8.526 212.026,7.526" style="fill:none;stroke-width:0.050000mm;stroke:black"/>
<polygon points="178.976,7.526 178.976,8.526 178.176,8.526 178.176,11.626 178.976,11.626 178.976,17.426 178.176,17.426 178.176,20.526 178.976,20.526 178.976,21.526 192.976,21.526 192.976,20.526 193.776,20.526 193.776,17.426 192.976,17.426 192.976,11.626 193.776,11.626 193.776,8.526 192.976,8.526 192.976,7.526" style="fill:none;stroke-width:0.050000mm;stroke:black"/>
<polygon points="159.926,7.526 159.926,8.526 159.126,8.526 159.126,11.626 159.926,11.626 159.926,17.426 159.126,17.426 159.126,20.526 159.926,20.526 159.926,21.526 173.926,21.526 173.926,20.526 174.726,20.526 174.726,17.426 173.926,17.426 173.926,11.626 174.726,11.626 174.726,8.526 173.926,8.526 173.926,7.526" style="fill:none;stroke-width:0.050000mm;stroke:black"/>
<polygon points="131.351,7.526 131.351,8.526 130.550,8.526 130.550,11.626 131.351,11.626 131.351,17.426 130.550,17.426 130.550,20.526 131.351,20.526 131.351,21.526 145.351,21.526 145.351,20.526 146.151,20.526 146.151,17.426 145.351,17.426 145.351,11.626 146.151,11.626 146.151,8.526 145.351,8.526 145.351,7.526" style="fill:none;stroke-width:0.050000mm;stroke:black"/>
<polygon points="112.301,7.526 112.301,8.526 111.501,8.526 111.501,11.626 112.301,11.626 112.301,17.426 111.501,17.426 111.501,20.526 112.301,20.526 112.301,21.526 126.301,21.526 126.301,20.526 127.101,20.526 127.101,17.426 126.301,17.426 126.301,11.626 127.101,11.626 127.101,8.526 126.301,8.526 126.301,7.526" style="fill:none;stroke-width:0.050000mm;stroke:black"/>
<polygon points="93.251,7.526 93.251,8.526 92.451,8.526 92.451,11.626 93.251,11.626 93.251,17.426 92.451,17.426 92.451,20.526 93.251,20.526 93.251,21.526 107.251,21.526 107.251,20.526 108.051,20.526 108.051,17.426 107.251,17.426 107.251,11.626 108.051,11.626 108.051,8.526 107.251,8.526 107.251,7.526" style="fill:none;stroke-width:0.050000mm;stroke:black"/>
<polygon points="74.201,7.526 74.201,8.526 73.401,8.526 73.401,11.626 74.201,11.626 74.201,17.426 73.401,17.426 73.401,20.526 74.201,20.526 74.201,21.526 88.201,21.526 88.201,20.526 89.001,20.526 89.001,17.426 88.201,17.426 88.201,11.626 89.001,11.626 89.001,8.526 88.201,8.526 88.201,7.526" style="fill:none;stroke-width:0.050000mm;stroke:black"/>
<polygon points="36.101,7.526 36.101,8.526 35.301,8.526 35.301,11.626 36.101,11.626 36.101,17.426 35.301,17.426 35.301,20.526 36.101,20.526 36.101,21.526 50.101,21.526 50.101,20.526 50.901,20.526 50.901,17.426 50.101,17.426 50.101,11.626 50.901,11.626 50.901,8.526 50.101,8.526 50.101,7.526" style="fill:none;stroke-width:0.050000mm;stroke:black"/>
<polygon points="7.526,7.526 7.526,8.526 6.726,8.526 6.726,11.626 7.526,11.626 7.526,17.426 6.726,17.426 6.726,20.526 7.526,20.526 7.526,21.526 21.526,21.526 21.526,20.526 22.326,20.526 22.326,17.426 21.526,17.426 21.526,11.626 22.326,11.626 22.326,8.526 21.526,8.526 21.526,7.526" style="fill:none;stroke-width:0.050000mm;stroke:black"/>
</svg>
